<svg width="28" height="28" viewBox="0 0 28 28" fill="none" xmlns="http://www.w3.org/2000/svg">
<path d="M22.4572 12.5965C22.5478 12.0776 22.5978 11.5437 22.5978 10.9979C22.5978 6.03669 18.6781 2 13.8602 2C9.04208 2 5.12216 6.03669 5.12216 10.9979C5.12216 11.5437 5.17236 12.0771 5.26318 12.5965C4.50451 13.0811 4 13.9282 4 14.8957V23.7044C4 25.2111 5.22149 26.4324 6.72778 26.4324H20.9924C22.4983 26.4324 23.7196 25.2111 23.7196 23.7044H23.7204V14.8957C23.7204 13.9284 23.2163 13.0811 22.4572 12.5965ZM15.0638 20.2879V22.2021C15.0638 22.8675 14.5249 23.4064 13.8598 23.4064C13.1947 23.4064 12.6557 22.8675 12.6557 22.2021V20.2871C11.8834 19.8615 11.3596 19.0403 11.3596 18.0959C11.3596 16.7151 12.479 15.5955 13.8602 15.5955C15.2414 15.5955 16.361 16.7151 16.361 18.0959C16.361 19.0407 15.8368 19.8625 15.0638 20.2879ZM19.2732 12.1675H8.44697C8.37274 11.79 8.33318 11.3984 8.33318 10.9979C8.33318 7.80692 10.8125 5.21102 13.8602 5.21102C16.9077 5.21102 19.3868 7.80671 19.3868 10.9979C19.3868 11.3984 19.3477 11.79 19.2732 12.1675Z" fill="white"/>
</svg>
