<svg width="28" height="28" viewBox="0 0 28 28" fill="none" xmlns="http://www.w3.org/2000/svg">
<path d="M13.3374 10.8911C11.9681 10.8911 10.8511 12.0601 10.8511 13.4999C10.8511 14.936 11.9644 16.1087 13.3374 16.1087C14.7067 16.1087 15.8237 14.9397 15.8237 13.4999C15.8237 12.0638 14.7067 10.8911 13.3374 10.8911V10.8911Z" fill="white"/>
<path d="M13.3368 17.6227C11.1325 17.6227 9.33638 15.7746 9.33638 13.4998C9.33638 11.225 11.1325 9.37695 13.3368 9.37695C15.5411 9.37695 17.3372 11.225 17.3372 13.4998C17.3372 15.7746 15.5411 17.6227 13.3368 17.6227V17.6227ZM22.4768 13.099C20.1092 9.29902 16.9178 7.20605 13.5 7.20605C10.0823 7.20605 6.89087 9.29902 4.52329 13.099C4.37114 13.3439 4.37114 13.6557 4.52329 13.9006C6.89087 17.7006 10.0823 19.7936 13.5 19.7936C16.9178 19.7936 20.1055 17.7006 22.4768 13.9006C22.629 13.6557 22.629 13.3439 22.4768 13.099Z" fill="white"/>
</svg>
