<svg width="285" height="57" viewBox="0 0 285 57" fill="none" xmlns="http://www.w3.org/2000/svg">
<g clip-path="url(#clip0_22_812)">
<path fill-rule="evenodd" clip-rule="evenodd" d="M42.657 -0.283691C43.0358 -0.283691 43.4145 -0.283691 43.7933 -0.283691C43.4145 72.4432 43.0358 72.4432 42.657 -0.283691Z" fill="#F4A83E"/>
<path fill-rule="evenodd" clip-rule="evenodd" d="M0.0439453 29.2606C0.0439453 27.556 0.0439453 25.8515 0.0439453 24.147C2.66533 11.4903 10.4304 4.2934 23.3393 2.55617C27.3428 2.48423 28.9527 4.37816 28.1688 8.23796C20.9441 16.8817 19.2396 26.5407 23.0552 37.2151C24.7239 40.744 26.5231 44.1531 28.4529 47.4423C28.1819 50.5214 26.4773 51.8471 23.3393 51.4196C10.1768 49.6191 2.41176 42.2327 0.0439453 29.2606Z" fill="#F09107"/>
<path fill-rule="evenodd" clip-rule="evenodd" d="M111.407 7.10136C111.407 16.7604 111.407 26.4194 111.407 36.0785C112.733 36.0785 114.059 36.0785 115.384 36.0785C115.95 36.0297 116.423 36.2192 116.805 36.6467C117.184 40.4345 117.184 44.2224 116.805 48.0102C116.521 48.6731 116.047 49.1466 115.384 49.4307C96.8236 49.8095 78.2634 49.8095 59.7027 49.4307C59.2294 48.9572 58.7556 48.4837 58.2823 48.0102C57.9033 44.4118 57.9033 40.8133 58.2823 37.2148C59.888 36.1695 61.6874 35.7907 63.68 36.0785C63.5851 26.2282 63.68 16.3798 63.9641 6.53318C64.1766 6.01262 64.4607 5.53912 64.8163 5.11273C79.5396 4.1764 94.3122 3.98701 109.134 4.54456C110.352 4.9946 111.11 5.84688 111.407 7.10136Z" fill="#F09107"/>
<path fill-rule="evenodd" clip-rule="evenodd" d="M111.407 7.10156C111.973 16.4717 112.163 25.9414 111.975 35.5105C113.245 35.3431 114.381 35.5324 115.384 36.0787C114.059 36.0787 112.733 36.0787 111.407 36.0787C111.407 26.4196 111.407 16.7606 111.407 7.10156Z" fill="#FBE1BC"/>
<path fill-rule="evenodd" clip-rule="evenodd" d="M72.7711 12.7834C75.9961 12.689 79.216 12.7837 82.4302 13.0675C83.1876 13.6356 83.1876 14.2038 82.4302 14.772C79.2103 15.1508 75.991 15.1508 72.7711 14.772C72.0984 14.1212 72.0984 13.4583 72.7711 12.7834Z" fill="#FEF0E2"/>
<path fill-rule="evenodd" clip-rule="evenodd" d="M72.771 18.4666C82.6215 18.372 92.4697 18.4667 102.316 18.7507C102.792 19.3253 102.981 19.9882 102.884 20.7394C92.6572 20.7394 82.43 20.7394 72.2028 20.7394C72.1647 19.9106 72.3539 19.1529 72.771 18.4666Z" fill="#FEF0E3"/>
<path fill-rule="evenodd" clip-rule="evenodd" d="M72.2029 24.7163C82.4301 24.7163 92.6573 24.7163 102.885 24.7163C102.885 25.2845 102.885 25.8527 102.885 26.4208C92.6573 26.4208 82.4301 26.4208 72.2029 26.4208C72.2029 25.8527 72.2029 25.2845 72.2029 24.7163Z" fill="#FEFCF9"/>
<path fill-rule="evenodd" clip-rule="evenodd" d="M62.5437 40.624C79.2101 40.624 95.877 40.624 112.543 40.624C112.543 42.1392 112.543 43.6543 112.543 45.1695C95.877 45.1695 79.2101 45.1695 62.5437 45.1695C62.5437 43.6543 62.5437 42.1392 62.5437 40.624Z" fill="#FEFEFE"/>
</g>
<path d="M161.273 3.60141L160.068 6.06689H161.602C162.534 6.06689 163.355 5.62859 163.849 4.80676C164.287 4.1493 164.999 3.05353 165.437 2.34128C166.204 1.19072 166.15 1.13593 164.342 1.13593C162.698 1.13593 162.369 1.40988 161.273 3.60141Z" fill="#F8F8F8"/>
<path d="M147.412 9.19052C147.357 16.9705 147.083 18.1758 145.056 19.162C143.029 20.0934 140.947 19.1072 140.508 16.9157C140.235 15.6008 139.961 15.3816 138.372 15.3816C136.618 15.3816 136.509 15.4912 136.838 16.8609C137.714 20.5865 140.289 22.6685 143.905 22.6137C146.864 22.6137 148.343 21.8467 149.658 19.6003C150.59 18.0663 150.754 16.8061 150.754 10.2863V2.78027H149.11H147.467L147.412 9.19052Z" fill="#F8F8F8"/>
<path d="M157.876 9.18926C153.877 11.2712 152.891 17.0788 156.014 20.3661C161.328 25.9545 170.806 21.0236 168.834 13.7367C167.629 9.18926 162.205 6.94293 157.876 9.18926ZM164.615 12.5314C165.163 13.0245 165.547 14.1202 165.547 15.4351C165.547 20.4209 158.643 21.2975 157.602 16.4761C156.726 12.4218 161.438 9.79193 164.615 12.5314Z" fill="#F8F8F8"/>
<path d="M170.697 9.18935C170.861 9.73723 172.067 12.8602 173.382 16.2023L175.738 22.229H177.874H180.011L182.641 15.7092C184.065 12.0931 185.271 8.91541 185.271 8.64147C185.271 8.42231 184.449 8.25795 183.517 8.36752C181.819 8.53189 181.655 8.75104 180.011 13.3533C179.025 16.0379 178.148 18.2842 177.984 18.4486C177.874 18.613 176.888 16.4214 175.902 13.6272C174.094 8.69625 173.929 8.53189 172.176 8.36752C170.642 8.20316 170.423 8.31273 170.697 9.18935Z" fill="#F8F8F8"/>
<path d="M190.147 9.08073C187.846 10.3409 186.915 12.2585 186.915 15.7101C186.915 18.4496 187.079 18.9427 188.777 20.6411C190.421 22.2848 190.969 22.5039 193.434 22.5039C196.557 22.5039 199.187 21.4081 200.064 19.8193C200.338 19.2166 200.612 18.6139 200.612 18.4496C200.612 17.7921 197.544 18.1756 196.557 18.9427C195.955 19.381 194.804 19.7645 193.927 19.7645C192.448 19.7645 190.202 18.1208 190.202 17.0251C190.202 16.6963 192.393 16.4772 195.681 16.4772C200.831 16.4772 201.16 16.4224 201.16 15.3814C201.16 13.5186 199.735 10.7244 198.146 9.46425C196.338 8.03975 192.393 7.87539 190.147 9.08073ZM196.448 12.1489C197.215 12.7516 197.763 13.5186 197.598 13.7925C197.16 14.45 190.202 14.45 190.202 13.7378C190.202 12.6968 192.393 10.9983 193.708 10.9983C194.421 10.9983 195.626 11.4914 196.448 12.1489Z" fill="#F8F8F8"/>
<path d="M204.447 15.3814V22.5039H206.09H207.734V18.2304C207.734 13.0803 208.556 11.5462 211.24 11.5462C213.925 11.5462 214.308 12.3133 214.308 17.6825V22.5039H216.281H218.253L218.034 16.9703C217.87 11.5462 217.87 11.4366 216.062 9.84777C214.035 8.03975 210.912 7.71102 209.049 9.08073C207.679 10.1217 207.186 10.1217 207.186 9.08073C207.186 8.58764 206.693 8.25891 205.816 8.25891H204.447V15.3814Z" fill="#F8F8F8"/>
<path d="M224.28 9.35349C219.897 12.0381 220.007 18.8319 224.445 21.7357C226.253 22.8862 230.417 22.8314 232.334 21.6261C233.814 20.6399 235.074 19.2154 235.129 18.5032C235.129 17.7909 231.458 18.1196 230.745 18.9415C229.376 20.5851 224.719 19.2702 224.719 17.243C224.719 16.6404 225.814 16.476 230.252 16.476H235.786L235.457 14.394C234.471 9.02476 228.937 6.50449 224.28 9.35349ZM230.636 11.8738C232.937 13.4626 232.17 14.2844 228.28 14.2844C225.541 14.2844 224.719 14.1201 224.719 13.5174C224.719 12.4764 226.801 10.9971 228.28 10.9971C228.883 10.9971 229.978 11.3807 230.636 11.8738Z" fill="#F8F8F8"/>
<path d="M239.456 9.8473C238.58 10.7239 237.867 11.9841 237.867 12.5867C237.867 14.066 239.621 15.8192 241.538 16.2576C245.045 17.0246 245.812 17.4081 245.812 18.4491C245.812 20.038 241.977 20.2571 241.155 18.723C240.388 17.2437 237.867 17.1342 237.867 18.5587C237.867 22.5582 244.88 24.2019 248.332 21.0789C249.537 19.9832 249.757 16.3671 248.716 15.4905C248.332 15.1618 246.579 14.5591 244.826 14.1208C241.155 13.1346 240.881 12.9702 241.319 11.8197C241.757 10.7239 244.387 10.7787 245.647 11.9293C246.908 13.025 249.373 13.2442 249.373 12.2032C249.373 11.8197 248.661 10.7239 247.784 9.8473C246.469 8.53238 245.702 8.25844 243.62 8.25844C241.538 8.25844 240.771 8.53238 239.456 9.8473Z" fill="#F8F8F8"/>
<path d="M261.865 9.08015C260.55 9.84719 259.235 11.4361 259.235 12.3127C259.235 12.9701 262.303 12.5866 263.289 11.8196C264.769 10.7238 266.522 10.7786 267.618 11.9839C269.316 13.8467 268.768 14.2851 264.988 14.2851C261.865 14.2851 261.208 14.4494 260.057 15.6548C256.112 19.5447 261.372 24.6401 266.632 21.9554C268.494 21.024 268.823 20.9692 269.261 21.6815C269.535 22.1746 270.467 22.5033 271.563 22.5033C273.206 22.5033 273.48 22.339 273.48 21.1884C273.48 20.4761 273.097 19.7639 272.658 19.5447C272.056 19.3256 271.836 18.3394 271.836 15.4356C271.836 10.2855 270.631 8.75142 266.303 8.42269C264.33 8.31311 262.851 8.53226 261.865 9.08015ZM268.549 16.8053C268.549 18.6133 265.481 20.6405 263.618 20.0378C262.303 19.5995 261.81 18.175 262.577 17.2436C263.18 16.5314 268.549 16.0931 268.549 16.8053Z" fill="#F8F8F8"/>
<path d="M138.7 36.7479V46.6099H140.344C141.878 46.6099 141.933 46.5551 142.097 43.4321L142.262 40.3092L146.426 40.0352C150.973 39.7065 153.219 38.6655 154.041 36.4192C155.466 32.7484 153.986 29.1323 150.425 27.6531C149.329 27.2148 146.59 26.886 143.631 26.886H138.7V36.7479ZM149.549 31.0499C150.973 32.0361 151.192 34.6112 149.932 35.8713C148.946 36.8575 146.152 37.4602 143.851 37.1862C142.371 37.0219 142.262 36.8575 142.097 34.3372C141.988 32.858 142.043 31.3239 142.207 30.9404C142.645 29.8446 147.96 29.8994 149.549 31.0499Z" fill="#F8F8F8"/>
<path d="M163.903 32.7484C163.465 32.9127 162.534 33.5702 161.876 34.1729L160.616 35.2687V34.1181C160.616 33.1319 160.287 32.9127 158.972 32.9127H157.329V39.7613V46.6099H159.246H161.164V42.2816C161.164 38.2272 161.273 37.8437 162.588 36.8027C163.41 36.1453 164.506 35.6522 165.054 35.6522C165.821 35.6522 166.095 35.2687 166.095 34.0085C166.095 32.3649 165.656 32.1457 163.903 32.7484Z" fill="#F8F8F8"/>
<path d="M171.738 33.4061C169.108 34.6662 167.738 36.803 167.738 39.9259C167.738 46.4457 175.956 49.4591 180.723 44.6925C182.257 43.1584 182.531 42.501 182.531 40.3642C182.531 38.9397 182.147 37.0221 181.654 36.1455C180.778 34.4471 177.216 32.3651 175.134 32.3651C174.532 32.3651 172.998 32.8582 171.738 33.4061ZM177.819 36.803C180.778 39.1041 179.079 43.8707 175.299 43.8707C173.162 43.8707 172.505 43.4872 171.628 41.8435C170.697 39.9807 170.916 38.4466 172.395 37.0221C174.039 35.3785 175.902 35.2689 177.819 36.803Z" fill="#F8F8F8"/>
<path d="M188.996 33.2421C187.517 33.8447 186.64 34.7761 185.819 36.4198C184.449 39.3236 184.449 40.2002 185.819 43.104C187.572 46.72 191.407 48.0897 194.804 46.3365C196.776 45.2955 196.776 45.2955 196.776 46.6104C196.776 49.569 191.9 51.0483 189.654 48.802C188.339 47.4871 185.819 47.3227 185.819 48.5828C185.819 49.0211 186.531 50.1169 187.353 50.9935C190.421 54.0617 196.393 53.5138 198.803 49.9525C199.954 48.2541 200.064 47.4871 200.064 40.5289V32.9133H198.694C197.927 32.9133 197.16 33.2969 196.941 33.7352C196.667 34.5022 196.557 34.5022 195.735 33.7899C194.311 32.5298 191.243 32.2559 188.996 33.2421ZM195.407 37.0225C197.105 38.6661 197.16 40.5289 195.626 42.4465C194.639 43.7067 194.092 43.9258 192.174 43.7614C190.256 43.5971 189.818 43.3231 188.996 41.7343C186.805 37.2964 191.9 33.4612 195.407 37.0225Z" fill="#F8F8F8"/>
<path d="M209.542 33.4058C208.117 34.2825 207.789 34.3372 207.515 33.6798C207.35 33.2415 206.583 32.9127 205.816 32.9127H204.447V39.7613V46.6099H206.09H207.734V43.0486C207.734 41.131 208.008 38.9395 208.337 38.2272C208.939 36.8575 210.912 35.6522 212.391 35.6522C212.939 35.6522 213.213 35.1043 213.213 34.0085C213.213 32.0361 212.117 31.8718 209.542 33.4058Z" fill="#F8F8F8"/>
<path d="M218.692 32.9677C217.213 33.5703 215.459 35.5427 215.405 36.5837C215.405 37.022 216.117 37.2959 217.048 37.2959C217.98 37.2959 218.692 37.0768 218.692 36.8576C218.692 36.5837 219.295 36.0906 220.062 35.7619C221.815 34.94 223.897 35.7071 224.335 37.2412C224.609 38.2821 224.39 38.3917 221.65 38.3917C218.418 38.3917 215.733 39.4327 215.185 40.8572C214.035 43.9801 215.514 46.4456 218.911 46.9935C220.993 47.3222 224.171 46.336 224.171 45.3498C224.171 45.0211 224.719 45.2951 225.431 45.9525C227.184 47.5962 229.102 47.5414 229.102 45.8977C229.102 45.1855 228.882 44.4184 228.609 44.1445C228.335 43.8158 228.006 41.7886 227.896 39.5971C227.732 36.2002 227.513 35.4331 226.253 34.2278C224.664 32.5841 220.993 31.9815 218.692 32.9677ZM224.445 41.1311C225.047 42.1173 222.089 44.528 220.5 44.3089C218.637 44.0897 217.651 42.6104 218.637 41.4599C219.459 40.4737 223.897 40.2545 224.445 41.1311Z" fill="#F8F8F8"/>
<path d="M238.415 32.7487C237.977 32.913 237.155 33.4061 236.662 33.8992C235.785 34.6663 235.676 34.6115 235.676 33.8444C235.676 33.187 235.183 32.913 234.032 32.913H232.388V39.7616V46.6101H234.032H235.676V42.2271C235.676 38.5562 235.84 37.6796 236.772 36.7482C238.086 35.4333 239.401 35.3785 241.045 36.5291C242.141 37.2961 242.25 37.844 242.25 42.0079V46.6101H243.839H245.428L245.592 41.8983C245.812 36.8578 246.524 35.6524 249.099 35.6524C251.4 35.6524 252.112 37.2413 252.112 42.3366V46.9937L253.756 46.7197L255.4 46.5006V41.46C255.4 35.4333 254.797 34.0088 251.784 32.9678C249.702 32.2556 249.318 32.2556 247.236 33.2965C244.99 34.3923 244.935 34.3923 242.963 33.4061C240.881 32.3651 239.894 32.2008 238.415 32.7487Z" fill="#F8F8F8"/>
<path d="M262.523 33.3515C261.482 33.8446 260.331 34.8856 259.948 35.6526C259.29 36.9128 259.345 37.0223 260.66 37.1867C261.427 37.2963 262.523 36.9676 263.125 36.4197C264.933 34.8308 268.549 35.5978 268.549 37.625C268.549 38.1729 267.728 38.392 265.7 38.392C262.304 38.392 260.386 39.2139 259.29 41.1863C256.989 45.2954 262.687 48.9114 267.18 46.172C268.714 45.2406 268.823 45.2406 269.755 46.172C270.303 46.7199 271.344 47.1582 272.111 47.1582C273.206 47.1582 273.48 46.8843 273.48 45.8433C273.48 45.131 273.097 44.4188 272.659 44.1996C272.056 43.9805 271.837 42.9943 271.837 40.0357C271.837 35.4335 271.289 34.1733 268.823 33.1324C266.358 32.1462 264.824 32.1462 262.523 33.3515ZM268.549 41.4054C268.549 42.9395 266.413 44.4736 264.55 44.3092C262.797 44.1448 262.084 43.0491 262.742 41.3506C263.18 40.2549 268.549 40.2549 268.549 41.4054Z" fill="#F8F8F8"/>
<path d="M282.466 32.9127C281.808 33.1867 281.096 33.625 280.877 33.9537C280.384 34.8303 279.507 34.666 279.507 33.7346C279.507 33.1867 278.959 32.9127 277.863 32.9127H276.22V39.7613V46.6099H278.137H280.055V42.6103C280.055 38.0629 280.822 36.474 283.342 35.9261C284.712 35.6522 284.986 35.3234 284.986 33.9537C284.986 32.3101 284.493 32.0909 282.466 32.9127Z" fill="#F8F8F8"/>
<defs>
<clipPath id="clip0_22_812">
<rect width="284.658" height="56.8179" fill="white" transform="translate(0.328125)"/>
</clipPath>
</defs>
</svg>
